<?xml version="1.0" encoding="UTF-8"?>
<svg version="1.1" xmlns="http://www.w3.org/2000/svg" width="1242" height="1242">
<path d="M0 0 C5.82502557 0.01709054 11.64963979 0.00692497 17.47465134 -0.01032352 C43.47287442 -0.07560289 69.1505373 0.45498388 94.99414062 3.39111328 C95.94216553 3.49335205 96.89019043 3.59559082 97.86694336 3.70092773 C102.84123176 4.23852164 107.79167064 4.86740098 112.74414062 5.57861328 C113.45820068 5.67993561 114.17226074 5.78125793 114.90795898 5.88565063 C166.42477201 13.26321393 217.41857793 27.18410097 264.99414062 48.39111328 C266.519021 49.07004639 266.519021 49.07004639 268.07470703 49.76269531 C279.81673405 55.01909986 291.4799711 60.43019276 302.91699219 66.32373047 C304.38769178 67.07947784 305.86130185 67.82957371 307.33691406 68.57568359 C339.12303474 84.64927615 368.9751908 104.43325752 396.99414062 126.39111328 C397.84492187 127.05755859 398.69570313 127.72400391 399.57226562 128.41064453 C405.92402878 133.44083116 412.10733152 138.66532489 418.26904297 143.92480469 C420.01042441 145.40495427 421.76108956 146.87347051 423.51367188 148.34033203 C429.91792496 153.72721066 436.02714286 159.26699571 441.8815918 165.24902344 C444.45037714 167.86991658 447.04642803 170.35932655 449.86914062 172.70361328 C455.7965948 177.75974396 460.9113421 183.6884436 466.17285156 189.41699219 C467.92759156 191.3189798 469.69590402 193.20706737 471.47070312 195.09033203 C477.15505322 201.1316026 482.65504556 207.23423771 487.84179688 213.71533203 C490.05255541 216.4637342 492.33209419 219.14349308 494.61914062 221.82861328 C511.590139 242.20428725 527.14675359 264.17303278 540.59277344 287.02539062 C542.07751985 289.53187019 543.59337513 292.01790036 545.11132812 294.50439453 C587.08492619 363.99025415 613.13654185 442.70329842 623.80664062 523.01611328 C623.90591858 523.75271179 624.00519653 524.4893103 624.10748291 525.24822998 C627.07388347 547.54157766 628.31133003 569.84576004 628.29492188 592.32470703 C628.29883155 594.62508722 628.30317064 596.92546671 628.3079071 599.22584534 C628.31528743 604.00809077 628.31513962 608.7902623 628.30981445 613.57250977 C628.30519169 618.39389394 628.31208219 623.21502536 628.33032227 628.03637695 C628.43382296 655.63838038 628.20007065 682.95066309 624.99414062 710.39111328 C624.84445328 711.67283417 624.69476593 712.95455505 624.5405426 714.27511597 C616.47283532 781.96879112 596.49003849 847.41225528 566.39794922 908.52783203 C565.10655784 911.16182127 563.8378892 913.80531845 562.57617188 916.45361328 C549.61015995 943.39117568 533.4453944 969.7756819 515.36816406 993.57714844 C513.91154143 995.50015948 512.47112373 997.43455236 511.03320312 999.37158203 C497.47347398 1017.61220398 483.21168809 1035.00791116 467.66748047 1051.60009766 C465.80690097 1053.59152036 463.95733999 1055.59290981 462.10742188 1057.59423828 C455.16274095 1065.07644348 448.14284958 1072.31148593 440.52539062 1079.10986328 C438.40849509 1081.01768272 436.40755627 1082.96563478 434.43164062 1085.01611328 C430.81783874 1088.70008607 426.81303535 1091.85671075 422.79492188 1095.08642578 C420.23224461 1097.19518392 417.79840195 1099.38152779 415.36914062 1101.64111328 C408.94352467 1107.49465532 401.96593269 1112.62395191 395.02929688 1117.84814453 C393.24439494 1119.20138112 391.47426474 1120.56999022 389.71289062 1121.95361328 C367.78552623 1139.13381631 344.30708398 1153.85792484 319.99414062 1167.39111328 C319.02686035 1167.93493652 318.05958008 1168.47875977 317.06298828 1169.0390625 C242.99489159 1210.56081546 159.64846306 1234.37464017 75.1743927 1241.21353149 C73.52555936 1241.34782916 71.87764874 1241.49352088 70.23027039 1241.6446228 C58.88596472 1242.59156125 47.55453654 1242.57401883 36.17773438 1242.59423828 C35.08936846 1242.59706566 34.00100254 1242.59989304 32.87965584 1242.60280609 C27.09872326 1242.61773412 21.31781514 1242.62699903 15.53686523 1242.63134766 C10.84114666 1242.63569771 6.14561542 1242.64946283 1.44995117 1242.67236328 C-88.68849579 1243.10315709 -175.16628327 1228.2195569 -258.00585938 1191.39111328 C-259.14023437 1190.88708984 -260.27460938 1190.38306641 -261.44335938 1189.86376953 C-306.83422451 1169.54933101 -349.27468118 1143.59905724 -388.00585938 1112.39111328 C-389.39998047 1111.2715625 -389.39998047 1111.2715625 -390.82226562 1110.12939453 C-401.95711687 1101.10157482 -412.81733443 1091.75514337 -423.30126953 1081.97802734 C-424.5274525 1080.8364935 -425.75666177 1079.6982072 -426.98779297 1078.56201172 C-435.86028352 1070.37296203 -444.4111399 1062.05416982 -452.47851562 1053.07128906 C-454.73942753 1050.58414141 -457.05377493 1048.14846345 -459.36279297 1045.70605469 C-465.54676656 1039.15259321 -471.38540816 1032.43793111 -477.00585938 1025.39111328 C-477.99731805 1024.18891467 -478.99095767 1022.98851261 -479.98632812 1021.78955078 C-487.49425586 1012.7169973 -494.53126743 1003.38588104 -501.32470703 993.76806641 C-503.05731792 991.3183569 -504.80270366 988.87807917 -506.54882812 986.43798828 C-513.64966815 976.46564869 -520.34912502 966.34749329 -526.57226562 955.80517578 C-528.0720065 953.27972657 -529.60047685 950.77309688 -531.13085938 948.26611328 C-573.09676297 878.77956125 -599.14860271 800.07635306 -609.81835938 719.76611328 C-609.91763733 719.02951477 -610.01691528 718.29291626 -610.11920166 717.53399658 C-613.08560222 695.2406489 -614.32304878 672.93646652 -614.30664062 650.45751953 C-614.3105503 648.15713935 -614.31488939 645.85675986 -614.31962585 643.55638123 C-614.32700618 638.77413579 -614.32685837 633.99196426 -614.3215332 629.2097168 C-614.31691044 624.38833262 -614.32380094 619.5672012 -614.34204102 614.74584961 C-614.44554171 587.14384619 -614.2117894 559.83156348 -611.00585938 532.39111328 C-610.78132835 530.46853195 -610.78132835 530.46853195 -610.55226135 528.5071106 C-605.75568996 488.26054061 -596.57388961 448.89979285 -584.00585938 410.39111328 C-583.57370117 409.0557251 -583.57370117 409.0557251 -583.1328125 407.69335938 C-574.32042659 380.70138763 -562.78592991 354.71046 -550.00585938 329.39111328 C-549.43802734 328.26495605 -548.87019531 327.13879883 -548.28515625 325.97851562 C-531.60524741 293.06394235 -512.01326235 262.0599303 -489.25927734 232.99609375 C-487.91920904 231.280159 -486.5892743 229.55664611 -485.25976562 227.83251953 C-480.4385962 221.6060127 -475.50790283 215.59537999 -470.16601562 209.80126953 C-467.94308909 207.32107844 -465.88336361 204.75374295 -463.81835938 202.14111328 C-459.55111371 196.85392841 -454.85627658 192.1260372 -450.01660156 187.37255859 C-447.0669532 184.47082005 -444.21141849 181.58054121 -441.56835938 178.39111328 C-436.56754538 172.49819428 -430.6623817 167.43152677 -424.97998047 162.21240234 C-423.07799285 160.45766235 -421.18990528 158.68934989 -419.30664062 156.91455078 C-413.26537006 151.23020069 -407.16273495 145.73020835 -400.68164062 140.54345703 C-397.93323845 138.3326985 -395.25347957 136.05315972 -392.56835938 133.76611328 C-363.12865651 109.22669644 -330.65329262 88.61088025 -297.00585938 70.39111328 C-296.37755219 70.04864563 -295.749245 69.70617798 -295.10189819 69.35333252 C-284.49908593 63.58609104 -273.74322503 58.36788475 -262.69335938 53.51611328 C-261.91728333 53.17383698 -261.14120728 52.83156067 -260.34161377 52.47891235 C-208.68809008 29.72612272 -155.01141415 13.58226037 -99.06835938 5.64111328 C-97.77647705 5.45460205 -96.48459473 5.26809082 -95.15356445 5.07592773 C-90.44715285 4.42615182 -85.72867291 3.90578331 -81.00585938 3.39111328 C-79.89780945 3.26476501 -78.78975952 3.13841675 -77.64813232 3.00823975 C-51.7849798 0.13929482 -26.00108597 -0.07698485 0 0 Z " fill="#4A6CF6" transform="translate(614.005859375,-0.39111328125)"/>
<path d="M0 0 C1.69698828 1.44728129 3.38499223 2.90518367 5.0625 4.375 C5.85398437 5.0453125 6.64546875 5.715625 7.4609375 6.40625 C17.71264707 15.29770037 26.63870776 25.62908772 35.66796875 35.73046875 C39.29842709 39.73996353 42.99925617 43.68291517 46.69482422 47.63232422 C50.53990178 51.74193816 54.37251874 55.86243073 58.1875 60 C58.67597412 60.52972412 59.16444824 61.05944824 59.66772461 61.60522461 C61.61951159 63.72265305 63.57048458 65.84083065 65.52148438 67.95898438 C71.36810846 74.30518648 77.23199103 80.63431966 83.125 86.9375 C88.2361202 92.40514521 93.31215192 97.90272159 98.36328125 103.42578125 C105.57347119 111.3037746 112.8319426 119.13620177 120.125 126.9375 C125.23609611 132.40516801 130.31215164 137.90272129 135.36328125 143.42578125 C139.19574627 147.61320685 143.04073361 151.78866118 146.90234375 155.94921875 C149.10599708 158.32689923 151.27974995 160.72863504 153.44140625 163.14453125 C165.84724596 176.89898331 179.14572172 189.94411059 198.51879883 191.58276367 C201.03647062 191.67714849 203.54317235 191.69718972 206.0625 191.6875 C206.90039062 191.70361328 207.73828125 191.71972656 208.6015625 191.73632812 C214.60931424 191.74097809 219.49485233 190.58368261 225.0625 188.375 C226.33287109 187.90126953 226.33287109 187.90126953 227.62890625 187.41796875 C233.07280826 185.08486789 237.46985501 182.08820233 242.0625 178.375 C243.073125 177.653125 244.08375 176.93125 245.125 176.1875 C253.41470759 169.14011916 258.74483373 157.0148473 260.0625 146.375 C261.12301472 129.34836839 261.12301472 129.34836839 256.0625 113.375 C255.711875 112.61703125 255.36125 111.8590625 255 111.078125 C247.33562076 95.64291681 232.95235369 85.87460206 217.0625 80.375 C204.99658042 77.73861274 191.89396616 78.07305605 181.0625 84.375 C172.89020522 90.19977743 165.94722992 97.24777619 158.9375 104.375 C157.87547582 105.44708615 156.81297838 106.51870369 155.75 107.58984375 C153.18203983 110.17953466 150.62047816 112.7754443 148.0625 115.375 C144.4877101 113.8569272 142.20438276 111.75925289 139.47753906 109.01708984 C138.57690735 108.11630707 137.67627563 107.21552429 136.74835205 106.28744507 C135.77483519 105.30371592 134.80142875 104.3198775 133.828125 103.3359375 C132.82536839 102.32944872 131.82216778 101.32340211 130.81854248 100.31777954 C128.18376187 97.67537853 125.55504389 95.02702572 122.92755127 92.37738037 C120.24310312 89.67243948 117.55295378 86.97318179 114.86328125 84.2734375 C109.59076382 78.97949826 104.32463943 73.67925717 99.0625 68.375 C103.7414368 62.84273915 108.62319642 57.62140353 113.75 52.5 C114.54583496 51.7049707 115.34166992 50.90994141 116.16162109 50.09082031 C121.86367772 44.44781036 127.6675852 39.22857636 134.0625 34.375 C134.68253906 33.86453125 135.30257813 33.3540625 135.94140625 32.828125 C146.84376965 24.06855872 159.59479134 17.93177318 173.0625 14.375 C173.78276367 14.18035156 174.50302734 13.98570312 175.24511719 13.78515625 C205.5384102 5.83852302 238.07022314 11.14778221 265.0859375 26.66015625 C293.97935793 43.76448355 316.38201586 70.67570053 325.0625 103.375 C325.34867188 104.3546875 325.63484375 105.334375 325.9296875 106.34375 C334.68179785 136.68439922 328.8000344 169.64851785 314.15698242 197.08422852 C298.71874526 224.60557852 273.19951351 245.85088738 243.0625 255.375 C230.21078288 258.9587101 218.04042299 260.55443664 204.6875 260.5625 C203.62789062 260.57474609 202.56828125 260.58699219 201.4765625 260.59960938 C194.44534849 260.6125344 187.92322269 259.89128612 181.0625 258.375 C180.28181152 258.20863037 179.50112305 258.04226074 178.69677734 257.87084961 C147.36585555 250.91029699 123.60664805 232.31517883 102.90136719 208.46118164 C99.81166502 204.95593668 96.59086875 201.57664602 93.375 198.1875 C88.53507432 193.06648161 83.70785157 187.93594116 78.9375 182.75 C74.70495293 178.15021617 70.45421671 173.56811833 66.1875 169 C65.60355469 168.37480469 65.01960938 167.74960937 64.41796875 167.10546875 C62.63308645 165.19505627 60.84786039 163.28496569 59.0625 161.375 C51.88732073 153.69904486 44.72018087 146.01659878 37.60107422 138.28857422 C33.17903708 133.49206089 28.72623938 128.72462387 24.27124023 123.95874023 C20.54066409 119.96546914 16.82622894 115.9579724 13.125 111.9375 C8.63150106 107.05746351 4.10395921 102.21041966 -0.4375 97.375 C-4.97896707 92.53957197 -9.5057772 87.69187717 -14 82.8125 C-14.96874321 81.76301457 -15.93749327 80.71353545 -16.90625 79.6640625 C-18.48622091 77.95173255 -20.06362344 76.23720652 -21.63671875 74.51855469 C-42.86350184 51.33544005 -67.52219789 32.83901571 -99.9375 30.375 C-131.83611004 28.98094197 -159.3512943 37.30949043 -183.27783203 58.83496094 C-190.50722715 65.54326109 -195.98185329 72.87796306 -200.9375 81.375 C-201.52402344 82.33792969 -202.11054688 83.30085938 -202.71484375 84.29296875 C-215.74522643 106.78962507 -219.7579501 134.9713677 -214.09765625 160.32421875 C-208.29900222 181.55038654 -198.60290085 198.98007295 -182.9375 214.375 C-182.17695313 215.13425781 -181.41640625 215.89351562 -180.6328125 216.67578125 C-159.58918277 236.52462614 -131.08590745 244.37049929 -102.80859375 243.6875 C-89.11304315 243.02707562 -76.34547276 238.9948208 -63.9375 233.375 C-63.07253906 233.00890625 -62.20757813 232.6428125 -61.31640625 232.265625 C-45.23161498 224.9759659 -32.21477178 211.93484359 -20.93359375 198.65625 C-18.05381419 195.36507336 -15.05426756 192.18925563 -12.0625 189 C-7.38007054 184.00422305 -2.74277025 178.97658068 1.8203125 173.87109375 C6.19387406 169.00226825 10.6333654 164.19323614 15.0625 159.375 C20.07131159 163.42467746 24.34859177 167.77557333 28.609375 172.6015625 C31.22560438 175.55940145 33.88754809 178.4704345 36.5625 181.375 C40.66371618 185.83815081 44.73252417 190.32903508 48.78125 194.83984375 C52.8563377 199.36849429 56.96061055 203.8706287 61.0625 208.375 C59.69103041 211.3935695 58.10001287 213.6748923 55.890625 216.140625 C55.26736328 216.83736328 54.64410156 217.53410156 54.00195312 218.25195312 C50.96900809 221.57200473 47.90176526 224.85735197 44.8125 228.125 C38.02262244 235.33735883 31.30639394 242.6106784 24.640625 249.93798828 C21.46272211 253.43090506 18.26992464 256.90915726 15.0625 260.375 C14.48371094 261.00921875 13.90492188 261.6434375 13.30859375 262.296875 C-10.70076579 287.56988505 -44.95464573 303.62351589 -78.9375 309.375 C-79.78248047 309.54418945 -80.62746094 309.71337891 -81.49804688 309.88769531 C-89.87033531 311.47263088 -98.06101903 311.69051163 -106.5625 311.625 C-107.61748688 311.62084579 -107.61748688 311.62084579 -108.69378662 311.61660767 C-119.54839331 311.56652181 -130.21332346 311.14358794 -140.9375 309.375 C-142.0409375 309.20355469 -143.144375 309.03210938 -144.28125 308.85546875 C-186.99539635 300.97369174 -225.37841049 275.0919773 -250.9375 240.375 C-251.35354492 239.81925293 -251.76958984 239.26350586 -252.19824219 238.69091797 C-267.17397784 218.46001734 -277.16220944 194.00491018 -281.9375 169.375 C-282.20675293 168.03163574 -282.20675293 168.03163574 -282.48144531 166.66113281 C-284.13278234 157.4177812 -284.3098205 148.28156434 -284.30810547 138.92089844 C-284.31245932 136.27472558 -284.34885024 133.63025269 -284.38671875 130.984375 C-284.45994198 119.70439221 -283.14117223 109.3472933 -280.43293762 98.40184021 C-279.68526346 95.34309783 -279.03325342 92.26663735 -278.375 89.1875 C-273.31592725 66.21742434 -260.17396093 43.05203176 -244.9375 25.375 C-244.20015625 24.51003906 -243.4628125 23.64507812 -242.703125 22.75390625 C-240.49935383 20.2404811 -238.23715899 17.80097306 -235.9375 15.375 C-235.47682129 14.88177246 -235.01614258 14.38854492 -234.54150391 13.88037109 C-221.77625455 0.28724117 -207.4499416 -10.03980638 -190.9375 -18.625 C-189.90761963 -19.16664795 -189.90761963 -19.16664795 -188.85693359 -19.71923828 C-180.74483812 -23.96717082 -172.68725704 -27.8513018 -163.9375 -30.625 C-163.00164062 -30.94984375 -162.06578125 -31.2746875 -161.1015625 -31.609375 C-106.46203297 -49.14798942 -44.2966255 -35.74924846 0 0 Z " fill="#FEFEFE" transform="translate(598.9375,375.625)"/>
<path d="M0 0 C0.83265381 0.00523682 1.66530762 0.01047363 2.52319336 0.01586914 C3.42231445 0.0190918 4.32143555 0.02231445 5.24780273 0.02563477 C6.66609375 0.03820312 6.66609375 0.03820312 8.11303711 0.05102539 C9.06243164 0.05553711 10.01182617 0.06004883 10.98999023 0.06469727 C13.34356776 0.07652429 15.69702188 0.09300514 18.05053711 0.11352539 C20.7833905 5.86996126 22.98565205 11.68039125 24.9519043 17.73901367 C26.16967891 21.47947605 27.43677844 25.20188065 28.71459961 28.92211914 C29.06897598 29.95554192 29.06897598 29.95554192 29.43051147 31.00984192 C29.92367286 32.44767233 30.41707591 33.88541988 30.91070557 35.3230896 C31.69293056 37.60169211 32.47409857 39.88065505 33.25512695 42.15966797 C35.81785893 49.63388849 38.39088681 57.10431602 40.98803711 64.56665039 C41.44691618 65.88767535 41.90573912 67.20871982 42.36450195 68.52978516 C43.21602568 70.97922408 44.0703581 73.42768904 44.92797852 75.875 C46.91054885 81.5822858 48.71214394 87.22027805 50.05053711 93.11352539 C46.92571149 93.20040035 43.80119465 93.25387107 40.67553711 93.30102539 C39.78608398 93.32616211 38.89663086 93.35129883 37.98022461 93.37719727 C36.70405273 93.39169922 36.70405273 93.39169922 35.40209961 93.40649414 C34.61657715 93.42220459 33.83105469 93.43791504 33.02172852 93.45410156 C32.37123535 93.34171143 31.72074219 93.22932129 31.05053711 93.11352539 C29.30095152 90.489147 28.57566891 88.93149167 27.76147461 85.98852539 C27.54233398 85.19961914 27.32319336 84.41071289 27.09741211 83.59790039 C26.76483398 82.36813477 26.76483398 82.36813477 26.42553711 81.11352539 C26.19608398 80.29368164 25.96663086 79.47383789 25.73022461 78.62915039 C24.05053711 72.51028878 24.05053711 72.51028878 24.05053711 69.11352539 C13.49053711 69.11352539 2.93053711 69.11352539 -7.94946289 69.11352539 C-8.27946289 70.76352539 -8.60946289 72.41352539 -8.94946289 74.11352539 C-9.39631494 75.66855738 -9.86688399 77.21694882 -10.35961914 78.75805664 C-10.62709961 79.59916992 -10.89458008 80.4402832 -11.17016602 81.30688477 C-11.44795898 82.17120117 -11.72575195 83.03551758 -12.01196289 83.92602539 C-12.29362305 84.80967773 -12.5752832 85.69333008 -12.86547852 86.60375977 C-13.55775109 88.77444495 -14.25328478 90.94408963 -14.94946289 93.11352539 C-20.88946289 93.11352539 -26.82946289 93.11352539 -32.94946289 93.11352539 C-31.82511963 85.24312259 -31.82511963 85.24312259 -30.71508789 82.23852539 C-30.34770508 81.22338867 -30.34770508 81.22338867 -29.97290039 80.18774414 C-29.59004883 79.16100586 -29.59004883 79.16100586 -29.19946289 78.11352539 C-27.03501138 72.21364951 -24.99268522 66.28310334 -23.01605225 60.31738281 C-21.30342789 55.15627433 -19.55602187 50.00769734 -17.79321289 44.86352539 C-17.5206366 44.0680127 -17.2480603 43.2725 -16.96722412 42.45288086 C-15.84760583 39.18717051 -14.72687957 35.92184082 -13.60620117 32.65649414 C-12.7721847 30.22568262 -11.93883752 27.7946427 -11.10571289 25.36352539 C-10.83782959 24.58283691 -10.56994629 23.80214844 -10.29394531 22.99780273 C-8.99775937 19.21200345 -7.7159364 15.42237889 -6.46508789 11.62133789 C-6.23478882 10.92234375 -6.00448975 10.22334961 -5.76721191 9.50317383 C-5.14600158 7.61122783 -4.52902991 5.71789157 -3.91235352 3.82446289 C-2.6078946 0.15186863 -2.6078946 0.15186863 0 0 Z " fill="#E2E3E5" transform="translate(848.949462890625,759.886474609375)"/>
<path d="M0 0 C4.33599887 3.66892212 7.45147134 7.85680969 7.98046875 13.67578125 C-3.21953125 20.67578125 -3.21953125 20.67578125 -7.01953125 20.67578125 C-7.59703125 19.58265625 -8.17453125 18.48953125 -8.76953125 17.36328125 C-10.8360719 13.76138821 -12.76336465 11.35167926 -16.87109375 10.12109375 C-21.96796327 9.0646517 -26.58701412 9.12882017 -31.45703125 10.98828125 C-34.23774811 12.58079689 -34.23774811 12.58079689 -36.01953125 15.67578125 C-36.35159549 20.15864845 -36.40083963 23.80143031 -34.01953125 27.67578125 C-31.29400598 28.63001996 -28.95422477 29.23580343 -26.14453125 29.73828125 C-24.59554322 30.0612388 -23.04736168 30.38808804 -21.5 30.71875 C-20.7373584 30.87778809 -19.9747168 31.03682617 -19.18896484 31.20068359 C-8.16417054 33.61507136 0.36893876 37.50119063 7.0703125 46.76953125 C10.407405 53.75880653 10.20679189 64.25503589 8.1796875 71.5625 C4.98135546 78.73951313 -0.24915082 83.57712362 -7.42578125 86.734375 C-18.64605832 90.64277151 -31.63405225 91.67068981 -42.5859375 86.453125 C-49.10430005 82.81022491 -53.97048898 78.6807275 -57.39453125 71.98828125 C-58.01953125 69.67578125 -58.01953125 69.67578125 -58.01953125 65.67578125 C-56.08582894 64.66845726 -54.14742819 63.67014837 -52.20703125 62.67578125 C-51.12808594 62.11890625 -50.04914063 61.56203125 -48.9375 60.98828125 C-46.01953125 59.67578125 -46.01953125 59.67578125 -43.01953125 59.67578125 C-42.65601563 60.48982422 -42.65601563 60.48982422 -42.28515625 61.3203125 C-39.72549252 66.90548716 -39.72549252 66.90548716 -35.01953125 70.67578125 C-34.31828125 71.06765625 -33.61703125 71.45953125 -32.89453125 71.86328125 C-25.60700176 73.92280045 -19.49525076 72.95424218 -12.734375 69.74609375 C-10.85404957 68.77979644 -10.85404957 68.77979644 -10.01953125 66.67578125 C-9.60689216 62.9620294 -9.54621313 59.38527442 -10.01953125 55.67578125 C-14.54595967 50.01774572 -22.53977808 48.7491265 -29.33203125 47.36328125 C-39.35253672 45.09908824 -46.59719801 41.21628112 -52.77734375 32.921875 C-56.21940089 26.69802954 -55.80206877 18.23797499 -54.62890625 11.3984375 C-52.58476767 4.78119401 -47.58910303 -0.26325135 -41.671875 -3.6796875 C-27.90386409 -10.04653061 -12.34500514 -8.80537534 0 0 Z " fill="#E1E2E5" transform="translate(374.01953125,765.32421875)"/>
<path d="M0 0 C8.43837335 4.84880802 12.82470612 11.2409399 16.27734375 20.30859375 C17.18410616 24.44603662 17.41287774 28.3916971 17.40234375 32.62109375 C17.40621094 34.19310547 17.40621094 34.19310547 17.41015625 35.796875 C17.27734375 38.30859375 17.27734375 38.30859375 16.27734375 39.30859375 C14.8957426 39.40137705 13.50946337 39.42606418 12.12475586 39.42211914 C11.2439183 39.42204361 10.36308075 39.42196808 9.45555115 39.42189026 C8.49826614 39.41672897 7.54098114 39.41156769 6.5546875 39.40625 C5.57947647 39.40483505 4.60426544 39.4034201 3.59950256 39.40196228 C0.47125232 39.39634508 -2.65692748 39.38378968 -5.78515625 39.37109375 C-7.90038959 39.36608097 -10.01562406 39.36151768 -12.13085938 39.35742188 C-17.32814921 39.34637006 -22.5253977 39.32961521 -27.72265625 39.30859375 C-27.41779297 40.58613525 -27.11292969 41.86367676 -26.79882812 43.17993164 C-26.54159973 44.25785728 -26.54159973 44.25785728 -26.2791748 45.3575592 C-25.27035507 48.89426457 -23.25614516 50.71176762 -20.72265625 53.30859375 C-16.29196969 55.52393703 -10.53312681 54.84574307 -5.72265625 54.30859375 C-2.19953846 51.82168707 -0.34204925 49.28346747 1.27734375 45.30859375 C6.47378454 46.90749861 11.34346517 49.04997378 16.27734375 51.30859375 C13.370862 59.54362537 8.87273144 64.22822367 1.27734375 68.30859375 C-7.77812443 71.93078102 -18.1603341 71.5245035 -27.12109375 67.7578125 C-35.59248105 63.03876642 -41.46955823 56.44752958 -44.72265625 47.30859375 C-47.57344937 36.60886374 -47.09372214 23.02087513 -41.72265625 13.30859375 C-32.70788736 -1.22914747 -16.08111237 -7.53232006 0 0 Z " fill="#E0E1E5" transform="translate(748.72265625,784.69140625)"/>
<path d="M0 0 C5.28 0 10.56 0 16 0 C16.495 26.235 16.495 26.235 17 53 C25.03726761 42.81027952 25.03726761 42.81027952 32.375 32.125 C34.84488673 29.08203498 36.58506299 27.28843374 40.48632812 26.49316406 C46.68455279 25.97413274 52.82568352 26.33536201 59 27 C57.35611492 30.46743471 55.42784132 32.92309063 52.8125 35.75 C52.00425781 36.63300781 51.19601562 37.51601563 50.36328125 38.42578125 C49.58339844 39.27527344 48.80351562 40.12476563 48 41 C42.46665574 47.17044573 37.21869524 53.56242583 32 60 C34.4009594 64.36092625 37.35996799 67.90770478 40.625 71.625 C41.7027299 72.86770359 42.77954341 74.11120246 43.85546875 75.35546875 C44.65283447 76.27658447 44.65283447 76.27658447 45.46630859 77.21630859 C50.95219191 83.59642058 56.14934766 90.12472755 61 97 C42.85069359 99.36192923 42.85069359 99.36192923 36.94140625 95.73730469 C33.3532656 92.36274384 30.81277367 88.29270275 28.296875 84.08789062 C26.62045637 81.38895762 24.71124845 78.92700856 22.73828125 76.44042969 C20.7929312 73.98576555 18.90152848 71.48876521 17 69 C16.67 78.24 16.34 87.48 16 97 C10.72 97 5.44 97 0 97 C0 64.99 0 32.98 0 0 Z " fill="#E3E3E5" transform="translate(400,756)"/>
<path d="M0 0 C4.92734727 3.13558463 7.81882845 7.30066563 9.60227966 12.8862915 C10.07602196 15.40402325 10.11962714 17.75660122 10.11352539 20.31933594 C10.11344986 21.38013367 10.11337433 22.4409314 10.11329651 23.53387451 C10.10813522 24.67253967 10.10297394 25.81120483 10.09765625 26.984375 C10.0962413 28.15510559 10.09482635 29.32583618 10.09336853 30.53204346 C10.0877709 34.27138829 10.0752188 38.01067326 10.0625 41.75 C10.0574847 44.28515539 10.05292184 46.82031171 10.04882812 49.35546875 C10.03780223 55.57033557 10.02053919 61.78515763 10 68 C4.72 68 -0.56 68 -6 68 C-6.01458252 66.57212158 -6.02916504 65.14424316 -6.04418945 63.6730957 C-6.10220226 58.37075881 -6.17943566 53.06884525 -6.26245117 47.7668457 C-6.29568634 45.47297033 -6.32372264 43.17901346 -6.34643555 40.88500977 C-6.38000674 37.58574727 -6.43232535 34.2872307 -6.48828125 30.98828125 C-6.49467117 29.96414627 -6.5010611 28.94001129 -6.50764465 27.88484192 C-6.61196128 20.94133061 -6.61196128 20.94133061 -10 15 C-14.24220249 12.09558751 -19.05925986 12.37557787 -24 13 C-29.05775585 15.39093913 -30.98595067 17.85644992 -33 23 C-33.45394031 26.47580848 -33.48824524 29.92752934 -33.51171875 33.4296875 C-33.52966995 34.42001984 -33.54762115 35.41035217 -33.56611633 36.43069458 C-33.62008901 39.57875371 -33.65407356 42.72666233 -33.6875 45.875 C-33.72068454 48.01564588 -33.75517525 50.15627194 -33.79101562 52.296875 C-33.8758082 57.5311412 -33.94268184 62.76536376 -34 68 C-39.61 68 -45.22 68 -51 68 C-51 45.23 -51 22.46 -51 -1 C-46.05 -1 -41.1 -1 -36 -1 C-36 0.98 -36 2.96 -36 5 C-35.41992188 4.59007812 -34.83984375 4.18015625 -34.2421875 3.7578125 C-33.46101562 3.21898437 -32.67984375 2.68015625 -31.875 2.125 C-31.10929688 1.59132813 -30.34359375 1.05765625 -29.5546875 0.5078125 C-20.50876527 -4.83121805 -9.26832022 -4.63416011 0 0 Z " fill="#E3E4E5" transform="translate(676,785)"/>
<path d="M0 0 C6.27 0 12.54 0 19 0 C21.1875 6.5625 21.1875 6.5625 21.9284668 8.78979492 C23.03298502 12.10919582 24.14457612 15.42572106 25.26953125 18.73828125 C28.43381941 28.09051071 31.27112848 37.51281689 34 47 C37.40588942 43.29794628 38.23781728 39.18149994 39.4375 34.4375 C41.03106738 28.40895357 42.79146161 22.57545145 45.01953125 16.74609375 C46.97927642 11.25724573 48.44381118 5.61339539 50 0 C56.27 0 62.54 0 69 0 C65.63218391 10.10344828 65.63218391 10.10344828 63.73046875 14.96875 C63.31958008 16.02594238 62.90869141 17.08313477 62.48535156 18.17236328 C62.05706055 19.2704834 61.62876953 20.36860352 61.1875 21.5 C58.01779904 29.679022 54.92188601 37.86822235 52.04541016 46.15478516 C50.21965135 51.40981775 48.29193238 56.62069209 46.32592773 61.82470703 C43.99793459 67.9886066 41.71921678 74.17014111 39.44750977 80.35498047 C39.17221436 81.10408691 38.89691895 81.85319336 38.61328125 82.625 C38.37391846 83.27726563 38.13455566 83.92953125 37.88793945 84.6015625 C36.60317297 88.07188031 35.29933374 91.53511004 34 95 C27.73 95 21.46 95 15 95 C17.23264582 88.30206254 17.23264582 88.30206254 18.98046875 84.9765625 C19.33947266 84.265 19.69847656 83.5534375 20.06835938 82.8203125 C20.81373631 81.35817693 21.57158099 79.90232985 22.34179688 78.453125 C24.8572657 73.39479567 25.64101938 69.52395296 24 64 C22.45185835 59.6788952 20.68029823 55.46910723 18.875 51.25 C15.07379489 42.16999186 11.51855621 33.08756535 8.3684082 23.76293945 C6.25568941 17.56567407 3.77931445 11.60940848 1.06640625 5.65234375 C0 3 0 3 0 0 Z " fill="#E1E2E5" transform="translate(467,783)"/>
<path d="M0 0 C5.61 0 11.22 0 17 0 C17 32.01 17 64.02 17 97 C11.39 97 5.78 97 0 97 C0 64.99 0 32.98 0 0 Z " fill="#E2E3E5" transform="translate(550,756)"/>
<path d="M0 0 C5.61 0 11.22 0 17 0 C17 30.69 17 61.38 17 93 C11.39 93 5.78 93 0 93 C0 62.31 0 31.62 0 0 Z " fill="#E4E4E5" transform="translate(914,760)"/>
<path d="M0 0 C5.94 0 11.88 0 18 0 C18 23.1 18 46.2 18 70 C12.06 70 6.12 70 0 70 C0 46.9 0 23.8 0 0 Z " fill="#DBDDE6" transform="translate(587,783)"/>
<path d="M0 0 C2 1 2 1 3.05322266 3.62036133 C3.4197998 4.7627124 3.78637695 5.90506348 4.1640625 7.08203125 C4.56367187 8.32404297 4.96328125 9.56605469 5.375 10.84570312 C5.57996094 11.49676025 5.78492188 12.14781738 5.99609375 12.81860352 C6.62015959 14.79715386 7.25830805 16.77073694 7.8984375 18.74414062 C11 28.47680347 11 28.47680347 11 33 C4.4 33 -2.2 33 -9 33 C-8.30410367 28.12872566 -7.59155524 24.22067625 -6.15234375 19.62890625 C-5.79462891 18.47841797 -5.43691406 17.32792969 -5.06835938 16.14257812 C-4.69517578 14.96115234 -4.32199219 13.77972656 -3.9375 12.5625 C-3.37192383 10.74975586 -3.37192383 10.74975586 -2.79492188 8.90039062 C-1.8680528 5.93206307 -0.93628172 2.96536931 0 0 Z " fill="#5172F6" transform="translate(856,780)"/>
<path d="M0 0 C5.57894737 3.15789474 5.57894737 3.15789474 7 6 C7.5811138 13.08958838 7.5811138 13.08958838 5.125 16.9375 C2.18758332 19.78852207 1.38852666 19.96815355 -2.8125 20.3125 C-5.83292415 20.24659984 -7.13081976 19.93598182 -9.9375 18.5625 C-12.86781321 14.92180783 -13.28831514 11.61304228 -13 7 C-11.77958841 3.98108712 -10.80119643 2.58017673 -8.1875 0.6875 C-5.22019177 -0.24508259 -3.10315844 -0.37237901 0 0 Z " fill="#E0E1E5" transform="translate(599,758)"/>
<path d="M0 0 C4.38564342 2.2392798 6.40976894 4.56163619 8.09375 9.31640625 C8.09375 10.63640625 8.09375 11.95640625 8.09375 13.31640625 C-0.81625 13.31640625 -9.72625 13.31640625 -18.90625 13.31640625 C-17.77737561 5.41428553 -17.77737561 5.41428553 -15.03125 2.94140625 C-14.51820313 2.45929687 -14.00515625 1.9771875 -13.4765625 1.48046875 C-9.56303216 -1.42060598 -4.50873158 -1.61686071 0 0 Z " fill="#4E6FF6" transform="translate(739.90625,796.68359375)"/>
</svg>
